<?xml version="1.0" standalone="no"?>
<!DOCTYPE svg PUBLIC "-//W3C//DTD SVG 20010904//EN"
 "http://www.w3.org/TR/2001/REC-SVG-20010904/DTD/svg10.dtd">
<svg version="1.0" xmlns="http://www.w3.org/2000/svg"
 width="1274.000000pt" height="1274.000000pt" viewBox="0 0 1274.000000 1274.000000"
 preserveAspectRatio="xMidYMid meet">
<metadata>
Created by potrace 1.11, written by Peter Selinger 2001-2013
</metadata>
<g transform="translate(0.000000,1274.000000) scale(0.100000,-0.100000)"
fill="#000000" stroke="none">
<path d="M4659 12598 c-160 -172 -133 -142 -254 -273 -150 -162 -149 -161
-265 -285 -59 -63 -119 -128 -134 -145 -41 -45 -205 -221 -254 -273 -24 -26
-80 -86 -125 -135 -94 -102 -114 -123 -211 -227 -39 -42 -116 -125 -171 -184
-55 -60 -113 -123 -130 -140 -16 -18 -75 -81 -130 -141 -121 -130 -131 -141
-270 -290 -60 -65 -121 -129 -134 -144 -13 -14 -67 -73 -120 -129 -53 -57
-109 -119 -126 -136 -29 -32 -236 -254 -285 -306 -146 -156 -221 -240 -218
-247 2 -4 8 -8 15 -9 6 -1 29 -4 50 -7 21 -3 67 -10 103 -16 36 -6 83 -13 105
-16 22 -4 51 -8 65 -11 14 -2 43 -6 65 -9 22 -3 49 -7 59 -9 11 -1 23 -9 28
-17 7 -13 195 -728 204 -774 2 -11 10 -41 18 -67 l14 -47 -57 -16 c-132 -37
-150 -62 -121 -165 6 -25 14 -52 15 -60 2 -8 20 -78 40 -155 21 -77 39 -147
41 -155 17 -74 76 -280 85 -297 7 -13 26 -25 44 -29 31 -6 55 0 345 81 99 28
127 45 135 84 2 12 -16 99 -40 194 -45 179 -108 417 -125 477 -5 19 -12 45
-16 58 -3 13 -19 31 -35 41 -29 18 -32 18 -97 0 -98 -27 -97 -27 -112 39 -8
31 -15 62 -16 67 -2 6 -20 78 -42 160 -114 435 -143 548 -140 551 3 3 85 -8
258 -36 73 -11 121 -18 165 -24 17 -3 59 -9 95 -15 76 -11 125 -19 178 -26 76
-11 81 -14 92 -53 5 -20 26 -98 45 -172 33 -128 117 -449 206 -790 23 -85 42
-162 44 -170 2 -8 15 -59 30 -113 15 -54 28 -106 30 -115 5 -29 26 -106 32
-122 3 -8 7 -20 8 -26 7 -32 62 -132 102 -184 35 -47 100 -109 142 -137 2 -1
3 -589 3 -1305 l-1 -1303 77 -50 c42 -28 189 -122 325 -210 136 -88 303 -196
370 -239 67 -44 148 -95 179 -115 31 -20 116 -74 188 -121 71 -47 141 -92 155
-100 14 -8 118 -76 232 -149 210 -136 338 -219 493 -319 47 -30 114 -74 150
-97 36 -23 97 -62 135 -87 86 -55 245 -158 385 -249 192 -125 625 -403 775
-499 30 -19 108 -69 173 -111 64 -42 297 -192 517 -334 220 -141 405 -263 410
-269 15 -19 45 -27 45 -13 0 7 12 20 28 30 41 26 390 241 410 252 9 6 108 66
219 135 112 69 211 130 220 135 36 20 489 297 513 314 14 10 32 21 40 24 8 4
45 27 82 50 37 23 251 154 475 291 225 137 410 251 412 253 2 1 4 1383 4 3070
0 2796 2 3069 16 3080 15 11 14 12 -1 13 -9 0 -18 3 -20 8 -2 4 -23 15 -48 24
-25 9 -171 74 -325 143 -154 70 -374 168 -490 220 -115 51 -244 109 -285 128
-41 19 -183 83 -314 141 -529 236 -471 203 -491 286 -7 27 -53 203 -79 299
l-25 94 434 436 c608 611 645 650 637 655 -5 3 -30 7 -58 11 -27 3 -76 10
-109 15 -33 5 -78 12 -100 15 -22 4 -51 8 -65 11 -14 2 -45 7 -70 10 -25 3
-54 8 -64 10 -16 3 -125 19 -201 29 -11 2 -47 8 -80 13 -33 6 -80 13 -105 16
-25 4 -54 8 -65 10 -11 2 -42 7 -70 10 -27 4 -57 9 -65 11 -8 2 -37 7 -65 10
-68 9 -232 33 -335 50 -14 2 -117 18 -230 35 -113 17 -245 37 -295 45 -141 22
-168 26 -205 31 -19 2 -44 6 -55 9 -11 2 -47 7 -80 11 -33 3 -62 7 -65 9 -3 2
-29 6 -59 10 -30 4 -63 9 -75 11 -12 2 -41 7 -66 10 -25 3 -53 8 -62 9 -9 2
-67 11 -128 20 -61 9 -119 18 -129 20 -10 2 -42 6 -72 10 -30 3 -61 8 -69 10
-8 3 -35 7 -60 10 -25 3 -56 7 -70 10 -14 3 -38 7 -55 10 -16 2 -64 9 -105 15
-41 6 -91 13 -110 16 -43 5 -88 12 -116 18 -12 2 -45 7 -74 11 -29 4 -62 9
-74 11 -12 2 -39 7 -61 10 -22 2 -53 7 -70 10 -16 3 -41 7 -55 9 -44 5 -124
17 -145 21 -11 2 -40 7 -65 10 -25 3 -54 8 -64 10 -11 2 -56 8 -100 15 -44 6
-83 12 -86 14 -3 2 -30 6 -60 9 -30 3 -64 8 -75 10 -11 2 -42 7 -70 10 -27 4
-57 9 -65 11 -8 2 -37 6 -65 10 -27 3 -59 8 -70 10 -11 3 -36 7 -55 9 -48 7
-193 29 -271 41 -36 6 -38 4 -170 -137z"/>
<path d="M4157 4193 c-4 -4 -53 -7 -110 -8 -56 -2 -105 -3 -109 -4 -5 0 -8
-17 -8 -37 0 -31 3 -35 23 -34 61 5 57 19 57 -209 l0 -210 28 3 c15 2 32 0 38
-5 7 -6 10 -1 9 14 -1 12 3 28 9 36 6 8 6 12 1 9 -7 -4 -10 56 -10 180 l0 187
32 -3 c36 -4 43 4 47 53 3 38 3 38 -7 28z"/>
<path d="M4219 4185 c-4 -1 -3 -478 1 -483 3 -4 20 -7 38 -8 l32 -1 0 96 c0
53 4 101 8 106 4 6 22 11 41 10 l34 0 3 -63 c3 -48 1 -61 -9 -56 -9 6 -9 5 -1
-7 7 -8 11 -26 9 -41 -4 -32 11 -46 45 -43 l25 2 5 149 c3 82 4 192 2 245 l-3
97 -37 -2 -36 -1 0 -102 c1 -96 -1 -102 -21 -105 -36 -7 -67 9 -65 34 1 13 2
57 1 98 l-1 76 -35 0 c-19 0 -35 0 -36 -1z"/>
<path d="M4516 3946 c1 -133 2 -243 3 -246 1 -7 185 -5 198 3 5 3 10 20 11 37
l1 30 -70 0 -70 0 3 68 3 67 45 0 c45 0 45 0 48 37 l3 37 -51 -2 -51 -2 3 70
3 69 65 -2 66 -2 1 35 c0 19 -2 36 -6 36 -3 1 -51 2 -106 3 l-100 2 1 -240z"/>
<path d="M3755 4020 c3 -5 8 -10 11 -10 2 0 4 5 4 10 0 6 -5 10 -11 10 -5 0
-7 -4 -4 -10z"/>
<path d="M3934 3816 c1 -8 5 -18 8 -22 4 -3 5 1 4 10 -1 8 -5 18 -8 22 -4 3
-5 -1 -4 -10z"/>
<path d="M3934 3756 c1 -8 5 -18 8 -22 4 -3 5 1 4 10 -1 8 -5 18 -8 22 -4 3
-5 -1 -4 -10z"/>
<path d="M3976 3762 c-2 -4 -1 -14 4 -22 7 -11 9 -9 7 8 -1 24 -3 26 -11 14z"/>
<path d="M4110 3741 c0 -6 4 -13 10 -16 6 -3 7 1 4 9 -7 18 -14 21 -14 7z"/>
<path d="M3859 3708 c-5 -18 -6 -38 -1 -34 7 8 12 36 6 36 -2 0 -4 -1 -5 -2z"/>
<path d="M3886 3682 c-3 -5 1 -9 9 -9 8 0 12 4 9 9 -3 4 -7 8 -9 8 -2 0 -6 -4
-9 -8z"/>
<path d="M3780 3660 c-9 -6 -10 -10 -3 -10 6 0 15 5 18 10 8 12 4 12 -15 0z"/>
<path d="M3956 3658 c3 -5 10 -6 15 -3 13 9 11 12 -6 12 -8 0 -12 -4 -9 -9z"/>
<path d="M3999 3653 c-13 -16 -12 -17 4 -4 16 13 21 21 13 21 -2 0 -10 -8 -17
-17z"/>
<path d="M4070 3661 c0 -6 4 -13 10 -16 6 -3 7 1 4 9 -7 18 -14 21 -14 7z"/>
<path d="M4230 3661 c0 -6 4 -12 8 -15 5 -3 9 1 9 9 0 8 -4 15 -9 15 -4 0 -8
-4 -8 -9z"/>
<path d="M4506 3662 c-3 -5 1 -9 9 -9 8 0 12 4 9 9 -3 4 -7 8 -9 8 -2 0 -6 -4
-9 -8z"/>
<path d="M4259 3628 c-5 -18 -6 -38 -1 -34 7 8 12 36 6 36 -2 0 -4 -1 -5 -2z"/>
<path d="M3835 3599 c-3 -4 2 -6 10 -5 21 3 28 13 10 13 -9 0 -18 -4 -20 -8z"/>
<path d="M3935 3600 c3 -5 8 -10 11 -10 2 0 4 5 4 10 0 6 -5 10 -11 10 -5 0
-7 -4 -4 -10z"/>
<path d="M4170 3599 c0 -5 5 -7 10 -4 6 3 10 8 10 11 0 2 -4 4 -10 4 -5 0 -10
-5 -10 -11z"/>
<path d="M4137 3575 c-4 -8 -3 -16 1 -19 4 -3 9 4 9 15 2 23 -3 25 -10 4z"/>
<path d="M4090 3559 c0 -5 5 -7 10 -4 6 3 10 8 10 11 0 2 -4 4 -10 4 -5 0 -10
-5 -10 -11z"/>
<path d="M4275 3560 c3 -5 8 -10 11 -10 2 0 4 5 4 10 0 6 -5 10 -11 10 -5 0
-7 -4 -4 -10z"/>
<path d="M4226 3542 c-3 -5 1 -9 9 -9 8 0 12 4 9 9 -3 4 -7 8 -9 8 -2 0 -6 -4
-9 -8z"/>
<path d="M5152 3520 c-50 -31 -59 -66 -58 -215 1 -71 -2 -140 -6 -153 -5 -13
-4 -21 1 -18 5 3 12 -5 15 -18 7 -29 51 -63 91 -70 15 -3 42 1 61 9 18 7 34
13 36 12 2 -1 2 0 0 2 -1 3 6 16 15 30 9 15 18 49 19 79 l2 52 -39 0 c-39 0
-39 0 -39 -40 0 -22 -5 -40 -11 -40 -5 0 -8 -4 -4 -9 8 -15 -13 -24 -40 -17
-24 6 -24 9 -24 112 0 59 -3 109 -5 112 -3 3 -1 11 5 19 6 7 7 13 2 13 -11 0
-4 60 9 77 9 12 21 11 51 -2 12 -5 17 -18 17 -45 0 -31 4 -38 23 -42 53 -10
68 25 41 98 -23 64 -103 90 -162 54z"/>
<path d="M5443 3530 c-28 -11 -53 -50 -59 -90 -9 -52 15 -98 87 -171 57 -57
69 -75 69 -102 0 -64 -66 -71 -88 -9 -8 24 -15 28 -43 27 -30 -2 -34 -5 -31
-26 7 -49 33 -88 67 -101 20 -6 31 -16 28 -22 -4 -6 1 -5 10 2 9 8 20 11 24 9
14 -9 71 21 87 45 23 35 26 90 8 129 -9 19 -45 62 -79 97 -35 34 -64 68 -64
75 -1 6 -2 19 -3 27 -6 53 56 70 77 21 9 -22 16 -27 32 -21 11 4 26 5 33 3 23
-9 13 42 -16 76 -22 26 -36 34 -72 37 -25 2 -55 0 -67 -6z"/>
<path d="M3950 3525 c0 -7 30 -13 34 -7 3 4 -4 9 -15 9 -10 1 -19 0 -19 -2z"/>
<path d="M4133 3515 c0 -8 4 -12 9 -9 5 3 6 10 3 15 -9 13 -12 11 -12 -6z"/>
<path d="M4174 3516 c1 -8 5 -18 8 -22 4 -3 5 1 4 10 -1 8 -5 18 -8 22 -4 3
-5 -1 -4 -10z"/>
<path d="M3851 3507 c2 -1 13 -9 24 -17 19 -14 19 -14 6 3 -7 9 -18 17 -24 17
-6 0 -8 -1 -6 -3z"/>
<path d="M4055 3481 c-3 -5 -2 -12 3 -15 5 -3 9 1 9 9 0 17 -3 19 -12 6z"/>
<path d="M4136 3482 c-3 -5 1 -9 9 -9 8 0 12 4 9 9 -3 4 -7 8 -9 8 -2 0 -6 -4
-9 -8z"/>
<path d="M3967 3459 c7 -7 15 -10 18 -7 3 3 -2 9 -12 12 -14 6 -15 5 -6 -5z"/>
<path d="M4626 3362 c-3 -5 1 -9 9 -9 8 0 12 4 9 9 -3 4 -7 8 -9 8 -2 0 -6 -4
-9 -8z"/>
<path d="M4273 3307 c0 -8 6 -14 14 -14 9 0 10 4 2 14 -6 7 -12 13 -14 13 -1
0 -2 -6 -2 -13z"/>
<path d="M4673 3305 c0 -8 4 -12 9 -9 5 3 6 10 3 15 -9 13 -12 11 -12 -6z"/>
<path d="M4853 3305 c0 -8 4 -12 9 -9 5 3 6 10 3 15 -9 13 -12 11 -12 -6z"/>
<path d="M4670 3100 c0 -5 5 -10 11 -10 5 0 7 5 4 10 -3 6 -8 10 -11 10 -2 0
-4 -4 -4 -10z"/>
<path d="M4796 3053 c-6 -14 -5 -15 5 -6 7 7 10 15 7 18 -3 3 -9 -2 -12 -12z"/>
<path d="M5026 3022 c-3 -5 1 -9 9 -9 8 0 12 4 9 9 -3 4 -7 8 -9 8 -2 0 -6 -4
-9 -8z"/>
<path d="M6384 2877 c-1 -37 -15 -120 -21 -131 -4 -6 -8 -28 -9 -51 -2 -55 -3
-57 -14 -50 -6 4 -7 -2 -1 -18 5 -13 6 -30 1 -37 -4 -7 -6 -19 -3 -27 3 -7 0
-13 -6 -13 -6 0 -8 -7 -5 -15 4 -10 0 -13 -15 -10 -12 2 -19 0 -16 -6 4 -5 10
-7 15 -4 14 9 23 -15 11 -29 -6 -7 -9 -15 -6 -18 3 -2 1 -19 -4 -36 -6 -21 -6
-32 0 -32 6 0 7 -6 3 -12 -6 -9 -3 -9 9 1 9 7 23 11 31 8 20 -8 41 20 41 57 1
45 11 56 50 56 33 0 34 -2 31 -30 -2 -16 1 -30 5 -30 5 0 9 -13 9 -29 0 -22 4
-28 18 -26 9 2 27 4 39 4 20 1 22 6 20 46 -1 25 -5 45 -8 45 -3 0 -6 6 -6 13
0 6 -3 30 -7 52 -4 22 -9 51 -11 65 -2 14 -13 78 -24 142 -12 64 -21 118 -21
121 0 2 -19 3 -42 2 -24 -1 -47 2 -53 6 -6 4 -10 -2 -11 -14z m62 -155 c2 -9
6 -39 9 -65 3 -27 8 -53 11 -58 5 -9 4 -10 -32 -14 -15 -1 -21 3 -19 14 8 44
19 137 16 146 -1 6 1 6 5 2 4 -4 9 -15 10 -25z"/>
<path d="M5940 2874 c5 -6 11 -37 14 -70 2 -32 7 -67 11 -77 4 -10 8 -38 9
-62 0 -23 4 -41 7 -39 4 2 9 -12 11 -31 2 -20 0 -35 -7 -35 -5 0 -4 -4 3 -9 8
-5 16 -24 18 -42 2 -19 6 -43 8 -54 3 -11 5 -30 5 -42 1 -20 5 -22 39 -18 20
2 31 2 25 -1 -7 -3 -13 -11 -13 -17 0 -16 23 9 28 30 7 37 10 59 11 86 1 16 4
26 9 24 4 -3 7 19 6 49 0 51 15 105 17 59 0 -11 3 -40 6 -65 4 -25 7 -59 7
-77 1 -17 4 -29 9 -26 12 7 8 -12 -5 -26 -10 -11 -10 -13 0 -7 8 5 12 0 12
-13 0 -18 4 -20 31 -14 30 6 31 5 19 -18 -13 -24 -12 -24 7 -4 10 11 20 26 20
35 1 8 5 29 8 45 4 17 8 42 8 58 1 15 4 27 7 27 3 0 6 15 6 33 1 17 4 50 8 72
3 22 8 60 12 85 3 25 8 61 11 80 12 74 11 74 -32 76 -38 1 -40 -1 -41 -30 -4
-64 -15 -152 -23 -181 l-9 -30 -3 35 c-4 46 -7 74 -9 80 -5 16 -12 56 -19 122
-1 6 -27 6 -73 -1 -5 0 -8 -10 -8 -21 0 -11 -5 -20 -12 -20 -8 0 -9 -3 -1 -11
11 -11 5 -62 -6 -55 -4 3 -5 -10 -3 -27 2 -18 -1 -50 -6 -72 l-10 -40 -2 35
c-1 19 -3 44 -6 55 -2 11 -6 36 -9 55 -15 113 -12 107 -60 106 -30 0 -41 -4
-35 -12z"/>
<path d="M6563 2883 c-8 -3 -9 -10 -4 -21 17 -35 54 -148 55 -169 1 -13 4 -23
7 -23 14 0 23 -50 28 -159 l6 -114 28 -2 c16 0 31 4 35 9 3 6 6 53 7 106 1 91
23 197 47 228 6 6 8 12 5 12 -3 0 5 28 19 62 13 34 22 64 19 67 -3 3 -21 6
-40 7 l-35 1 -26 -86 -27 -86 -28 85 c-25 79 -29 85 -56 86 -15 0 -33 -1 -40
-3z"/>
<path d="M4750 2866 c0 -2 7 -7 16 -10 8 -3 12 -2 9 4 -6 10 -25 14 -25 6z"/>
<path d="M5610 2821 c0 -6 4 -13 10 -16 6 -3 7 1 4 9 -7 18 -14 21 -14 7z"/>
<path d="M5360 2700 c-9 -6 -10 -10 -3 -10 6 0 15 5 18 10 8 12 4 12 -15 0z"/>
<path d="M5830 2640 c0 -5 5 -10 11 -10 5 0 7 5 4 10 -3 6 -8 10 -11 10 -2 0
-4 -4 -4 -10z"/>
<path d="M5886 2638 c3 -5 10 -6 15 -3 13 9 11 12 -6 12 -8 0 -12 -4 -9 -9z"/>
<path d="M5833 2585 c0 -8 4 -12 9 -9 5 3 6 10 3 15 -9 13 -12 11 -12 -6z"/>
<path d="M5733 2523 c4 -3 1 -13 -6 -22 -11 -14 -10 -14 5 -2 16 12 16 31 1
31 -4 0 -3 -3 0 -7z"/>
<path d="M5770 2519 c0 -5 5 -7 10 -4 6 3 10 8 10 11 0 2 -4 4 -10 4 -5 0 -10
-5 -10 -11z"/>
<path d="M5920 2506 c0 -2 8 -10 18 -17 15 -13 16 -12 3 4 -13 16 -21 21 -21
13z"/>
<path d="M5690 2480 c0 -5 5 -10 11 -10 5 0 7 5 4 10 -3 6 -8 10 -11 10 -2 0
-4 -4 -4 -10z"/>
<path d="M5973 2465 c0 -8 4 -15 9 -15 4 0 8 4 8 9 0 6 -4 12 -8 15 -5 3 -9
-1 -9 -9z"/>
<path d="M5916 2458 c3 -5 10 -6 15 -3 13 9 11 12 -6 12 -8 0 -12 -4 -9 -9z"/>
<path d="M5655 2441 c-3 -5 -2 -12 3 -15 5 -3 9 1 9 9 0 17 -3 19 -12 6z"/>
<path d="M5874 2426 c1 -14 4 -28 7 -31 3 -3 5 6 5 19 -1 14 -4 28 -7 31 -3 3
-5 -6 -5 -19z"/>
<path d="M5900 2446 c0 -2 8 -10 18 -17 15 -13 16 -12 3 4 -13 16 -21 21 -21
13z"/>
<path d="M5995 2430 c-4 -6 -11 -7 -17 -4 -7 4 -8 2 -4 -4 7 -12 36 -5 36 9 0
12 -7 11 -15 -1z"/>
<path d="M5906 2402 c-3 -5 1 -9 9 -9 8 0 12 4 9 9 -3 4 -7 8 -9 8 -2 0 -6 -4
-9 -8z"/>
<path d="M5952 2391 c7 -9 13 -18 15 -20 1 -2 1 5 0 16 0 11 -7 20 -14 20 -10
0 -10 -4 -1 -16z"/>
<path d="M5839 2388 c-5 -18 -6 -38 -1 -34 7 8 12 36 6 36 -2 0 -4 -1 -5 -2z"/>
<path d="M6099 2373 c-13 -16 -12 -17 4 -4 16 13 21 21 13 21 -2 0 -10 -8 -17
-17z"/>
<path d="M5989 2363 c-13 -16 -12 -17 4 -4 9 7 17 15 17 17 0 8 -8 3 -21 -13z"/>
<path d="M5653 2355 c0 -8 4 -12 9 -9 5 3 6 10 3 15 -9 13 -12 11 -12 -6z"/>
<path d="M6149 2357 c6 -8 7 -18 3 -22 -4 -5 -1 -5 6 -1 10 6 10 11 1 22 -6 8
-14 14 -16 14 -3 0 0 -6 6 -13z"/>
<path d="M6279 2333 c-12 -16 -12 -17 2 -6 9 7 20 9 24 5 5 -4 5 -1 1 6 -9 16
-11 15 -27 -5z"/>
<path d="M6346 2338 c3 -4 9 -8 15 -8 5 0 9 4 9 8 0 5 -7 9 -15 9 -8 0 -12 -4
-9 -9z"/>
<path d="M6029 2323 c-13 -16 -12 -17 4 -4 16 13 21 21 13 21 -2 0 -10 -8 -17
-17z"/>
<path d="M5910 2326 c0 -2 7 -7 16 -10 8 -3 12 -2 9 4 -6 10 -25 14 -25 6z"/>
<path d="M5970 2316 c0 -2 8 -10 18 -17 15 -13 16 -12 3 4 -13 16 -21 21 -21
13z"/>
<path d="M6046 2305 c-11 -8 -15 -15 -9 -15 6 0 16 7 23 15 16 19 11 19 -14 0z"/>
<path d="M6177 2313 c-10 -9 -9 -23 1 -23 5 0 9 7 9 15 0 17 -1 18 -10 8z"/>
<path d="M5787 2299 c7 -7 15 -10 18 -7 3 3 -2 9 -12 12 -14 6 -15 5 -6 -5z"/>
<path d="M5850 2301 c0 -6 4 -12 8 -15 5 -3 9 1 9 9 0 8 -4 15 -9 15 -4 0 -8
-4 -8 -9z"/>
<path d="M6074 2286 c1 -8 5 -18 8 -22 4 -3 5 1 4 10 -1 8 -5 18 -8 22 -4 3
-5 -1 -4 -10z"/>
<path d="M5634 2282 c4 -3 14 -7 22 -8 9 -1 13 0 10 4 -4 3 -14 7 -22 8 -9 1
-13 0 -10 -4z"/>
<path d="M6110 2276 c7 -7 13 -7 20 0 6 6 3 10 -10 10 -13 0 -16 -4 -10 -10z"/>
<path d="M6376 2278 c3 -5 10 -6 15 -3 13 9 11 12 -6 12 -8 0 -12 -4 -9 -9z"/>
<path d="M5893 2265 c0 -8 3 -13 5 -10 3 3 12 -1 21 -7 10 -8 9 -4 -3 10 -23
26 -23 26 -23 7z"/>
<path d="M5786 2262 c-2 -4 4 -8 14 -8 10 0 16 4 14 8 -3 4 -9 8 -14 8 -5 0
-11 -4 -14 -8z"/>
<path d="M6010 2266 c0 -2 7 -7 16 -10 8 -3 12 -2 9 4 -6 10 -25 14 -25 6z"/>
<path d="M6150 2266 c0 -2 7 -7 16 -10 8 -3 12 -2 9 4 -6 10 -25 14 -25 6z"/>
<path d="M6193 2255 c0 -8 4 -12 9 -9 5 3 6 10 3 15 -9 13 -12 11 -12 -6z"/>
<path d="M6411 2267 c2 -1 13 -9 24 -17 19 -14 19 -14 6 3 -7 9 -18 17 -24 17
-6 0 -8 -1 -6 -3z"/>
<path d="M5315 2229 c-4 -6 -5 -12 -2 -15 2 -3 7 2 10 11 7 17 1 20 -8 4z"/>
<path d="M5860 2226 c0 -2 8 -10 18 -17 15 -13 16 -12 3 4 -13 16 -21 21 -21
13z"/>
<path d="M6046 2222 c-3 -5 1 -9 9 -9 8 0 12 4 9 9 -3 4 -7 8 -9 8 -2 0 -6 -4
-9 -8z"/>
<path d="M6250 2200 c0 -5 5 -10 11 -10 5 0 7 5 4 10 -3 6 -8 10 -11 10 -2 0
-4 -4 -4 -10z"/>
<path d="M6286 2198 c3 -5 10 -6 15 -3 13 9 11 12 -6 12 -8 0 -12 -4 -9 -9z"/>
<path d="M6336 2198 c3 -4 11 -5 19 -1 21 7 19 12 -4 10 -11 0 -18 -5 -15 -9z"/>
<path d="M5749 2183 c-13 -16 -12 -17 4 -4 16 13 21 21 13 21 -2 0 -10 -8 -17
-17z"/>
<path d="M5996 2182 c-3 -5 1 -9 9 -9 8 0 12 4 9 9 -3 4 -7 8 -9 8 -2 0 -6 -4
-9 -8z"/>
<path d="M6156 2178 c3 -5 10 -6 15 -3 13 9 11 12 -6 12 -8 0 -12 -4 -9 -9z"/>
<path d="M5766 2158 c3 -5 10 -6 15 -3 13 9 11 12 -6 12 -8 0 -12 -4 -9 -9z"/>
<path d="M6255 2160 c3 -5 8 -10 11 -10 2 0 4 5 4 10 0 6 -5 10 -11 10 -5 0
-7 -4 -4 -10z"/>
<path d="M5830 2146 c0 -2 7 -7 16 -10 8 -3 12 -2 9 4 -6 10 -25 14 -25 6z"/>
<path d="M5935 2120 c3 -5 8 -10 11 -10 2 0 4 5 4 10 0 6 -5 10 -11 10 -5 0
-7 -4 -4 -10z"/>
<path d="M6090 2119 c0 -5 5 -7 10 -4 6 3 10 8 10 11 0 2 -4 4 -10 4 -5 0 -10
-5 -10 -11z"/>
<path d="M5786 2098 c3 -5 10 -6 15 -3 13 9 11 12 -6 12 -8 0 -12 -4 -9 -9z"/>
<path d="M6040 2100 c-9 -6 -10 -10 -3 -10 6 0 15 5 18 10 8 12 4 12 -15 0z"/>
<path d="M6177 2095 c-4 -8 -3 -16 1 -19 4 -3 9 4 9 15 2 23 -3 25 -10 4z"/>
<path d="M5975 2091 c-3 -5 -2 -12 3 -15 5 -3 9 1 9 9 0 17 -3 19 -12 6z"/>
<path d="M5813 2069 c-2 -23 3 -25 10 -4 4 8 3 16 -1 19 -4 3 -9 -4 -9 -15z"/>
<path d="M5935 2080 c-3 -5 -1 -10 4 -10 6 0 11 5 11 10 0 6 -2 10 -4 10 -3 0
-8 -4 -11 -10z"/>
<path d="M6033 1995 c0 -8 4 -12 9 -9 5 3 6 10 3 15 -9 13 -12 11 -12 -6z"/>
<path d="M5716 1978 c3 -5 10 -6 15 -3 13 9 11 12 -6 12 -8 0 -12 -4 -9 -9z"/>
<path d="M6120 1940 c-9 -6 -10 -10 -3 -10 6 0 15 5 18 10 8 12 4 12 -15 0z"/>
</g>
</svg>
